<?xml version="1.0" standalone="no"?>
<!DOCTYPE svg PUBLIC "-//W3C//DTD SVG 20010904//EN"
 "http://www.w3.org/TR/2001/REC-SVG-20010904/DTD/svg10.dtd">
<svg version="1.0" xmlns="http://www.w3.org/2000/svg"
 width="145.000000pt" height="145.000000pt" viewBox="0 0 145.000000 145.000000"
 preserveAspectRatio="xMidYMid meet">
<metadata>
Created by potrace 1.11, written by Peter Selinger 2001-2013
</metadata>
<g transform="translate(0.000000,145.000000) scale(0.100000,-0.100000)"
fill="#000000" stroke="none">
<path d="M666 1383 c67 -121 63 -118 87 -70 8 17 30 56 47 85 l30 52 -101 0
-101 0 38 -67z"/>
<path d="M0 916 l0 -335 82 -140 c45 -78 85 -141 88 -141 5 0 540 934 540 944
0 3 -160 6 -355 6 l-355 0 0 -334z"/>
<path d="M1013 775 c149 -261 274 -475 277 -475 3 0 40 60 83 133 l77 134 0
341 0 342 -354 0 -355 0 272 -475z"/>
<path d="M0 140 c0 -72 2 -130 4 -130 4 0 146 246 146 254 0 3 -34 6 -75 6
l-75 0 0 -130z"/>
<path d="M258 135 l77 -135 395 0 395 0 77 135 77 135 -549 0 -549 0 77 -135z"/>
<path d="M1310 265 c0 -8 132 -235 136 -235 2 0 4 54 4 120 l0 120 -70 0 c-38
0 -70 -2 -70 -5z"/>
</g>
</svg>
